<!-- Generated by IcoMoon.io -->
<svg version="1.1" xmlns="http://www.w3.org/2000/svg" width="20" height="20" fill="white" viewBox="0 0 32 32">
<title>cubes</title>
<path d="M31.5 17.193c0-0.21-0.132-0.398-0.329-0.47l-7.171-2.607v-8.351h-0.019c0.073-0.252-0.063-0.516-0.31-0.604l-7.5-2.727c-0.11-0.041-0.231-0.041-0.341 0l-7.5 2.727c-0.16 0.059-0.279 0.195-0.316 0.361h-0.013v8.594l-7.171 2.607c-0.16 0.059-0.279 0.195-0.316 0.361h-0.013v8.864h0.013c-0.055 0.245 0.081 0.493 0.317 0.579l7.5 2.727c0.11 0.041 0.231 0.041 0.341 0l7.329-2.665 7.329 2.665c0.11 0.041 0.231 0.041 0.341 0l7.5-2.727c0.152-0.055 0.268-0.18 0.311-0.336h0.019v-8.864s-0-0.088 0-0.134zM8 28.070l-6.5-2.363v-7.8l6.5 2.364zM8.5 19.388l-6.037-2.195 5.998-2.181 6.037 2.196zM15.5 25.707l-6.5 2.363v-7.799l6.5-2.364zM15.5 16.479l-6.5-2.364v-7.771l6.5 2.364zM9.963 5.631l6.037-2.195 6.037 2.195-6.037 2.195zM23 6.344v7.771l-6.5 2.364v-7.771zM23 28.070l-6.5-2.363v-7.8l6.5 2.364zM23.5 19.388l-5.998-2.181 6.038-2.196 5.997 2.181zM30.5 25.707l-6.5 2.363v-7.799l6.5-2.364z"></path>
</svg>
