
<svg version="1.1" xmlns="http://www.w3.org/2000/svg" width="32" height="32" fill="#fd642f" viewBox="0 0 32 32">
<title>document</title>
<path d="M27.952 4.241h-2.699v-2.699c0-0.848-0.694-1.542-1.542-1.542h-19.663c-0.848 0-1.542 0.694-1.542 1.542v24.675c0 0.848 0.694 1.542 1.542 1.542h2.699v2.699c0 0.848 0.694 1.542 1.542 1.542h13.108c0.848 0 2.048-0.476 2.665-1.057l4.308-4.055c0.618-0.581 1.123-1.751 1.123-2.599l0.001-18.506c-0-0.848-0.694-1.542-1.542-1.542zM6.747 5.783v20.819h-2.699c-0.209 0-0.385-0.177-0.385-0.386v-24.675c0-0.209 0.177-0.385 0.385-0.385h19.663c0.209 0 0.386 0.177 0.386 0.385v2.699h-15.808c-0.849 0-1.542 0.694-1.542 1.542zM27.577 26.046l-4.308 4.055c-0.088 0.083-0.203 0.164-0.33 0.242v-3.547c0-0.265 0.107-0.503 0.283-0.68 0.178-0.176 0.416-0.283 0.681-0.283h3.857c-0.060 0.081-0.121 0.156-0.183 0.215zM28.337 24.289c0 0.114-0.021 0.247-0.052 0.386h-4.381c-1.17 0.002-2.118 0.95-2.12 2.12v4.002c-0.138 0.028-0.27 0.047-0.386 0.047l-13.108 0c-0.209 0-0.386-0.177-0.386-0.386v-24.675c0-0.209 0.176-0.386 0.386-0.386h19.663c0.209 0 0.386 0.177 0.386 0.386l-0.001 18.506z"></path>
<path d="M23.711 9.638h-11.181c-0.32 0-0.578 0.259-0.578 0.578s0.259 0.578 0.578 0.578h11.181c0.319 0 0.578-0.259 0.578-0.578s-0.259-0.578-0.578-0.578z"></path>
<path d="M23.711 17.349h-11.181c-0.32 0-0.578 0.259-0.578 0.578s0.259 0.578 0.578 0.578h11.181c0.319 0 0.578-0.259 0.578-0.578s-0.259-0.578-0.578-0.578z"></path>
<path d="M18.699 21.205h-6.169c-0.32 0-0.578 0.259-0.578 0.578s0.259 0.578 0.578 0.578h6.169c0.319 0 0.578-0.259 0.578-0.578s-0.259-0.578-0.578-0.578z"></path>
<path d="M23.711 13.494h-11.181c-0.32 0-0.578 0.259-0.578 0.578s0.259 0.578 0.578 0.578h11.181c0.319 0 0.578-0.259 0.578-0.578s-0.259-0.578-0.578-0.578z"></path>
</svg>
