<!-- Generated by IcoMoon.io -->
<svg version="1.1" xmlns="http://www.w3.org/2000/svg" width="20" height="20" fill="white" viewBox="0 0 32 32">
<title>elips</title>
<path d="M31.063 15.063h-1.157c-0.198-2.994-1.344-5.813-3.291-8.095l0.753-0.733c0.371-0.361 0.379-0.955 0.018-1.326s-0.955-0.379-1.326-0.018l-0.753 0.733c-2.328-2.095-5.244-3.325-8.368-3.53v-1.157c0-0.518-0.42-0.938-0.938-0.938s-0.938 0.42-0.938 0.938v1.157c-3.125 0.205-6.040 1.435-8.368 3.53l-0.753-0.733c-0.371-0.361-0.965-0.353-1.326 0.018s-0.353 0.965 0.018 1.326l0.753 0.733c-1.947 2.283-3.093 5.101-3.291 8.095h-1.157c-0.518 0-0.938 0.42-0.938 0.938s0.42 0.938 0.938 0.938h1.157c0.198 2.99 1.341 5.805 3.284 8.086l-0.532 0.518c-0.371 0.361-0.379 0.955-0.018 1.326s0.955 0.379 1.326 0.018l0.531-0.517c2.329 2.1 5.248 3.333 8.377 3.538v1.157c0 0.518 0.42 0.937 0.938 0.937s0.938-0.42 0.938-0.938v-1.157c3.13-0.206 6.048-1.438 8.377-3.538l0.531 0.517c0.371 0.361 0.965 0.353 1.326-0.018s0.353-0.965-0.018-1.326l-0.532-0.518c1.942-2.281 3.086-5.096 3.284-8.086h1.157c0.518 0 0.938-0.42 0.938-0.938s-0.42-0.938-0.938-0.938zM28.026 15.063h-3.145c-0.191-1.613-0.865-3.196-1.931-4.529l2.317-2.256c1.609 1.926 2.567 4.282 2.759 6.784zM16 23.063c-1.805 0-3.625-0.805-4.994-2.21-0-0-0-0-0-0-1.314-1.349-2.068-3.118-2.068-4.853 0-3.692 3.329-7.063 7.063-7.063 3.741 0 7.063 3.377 7.063 7.063 0 3.692-3.329 7.063-7.063 7.063zM23.959 6.935l-2.319 2.257c-1.369-1.15-3.015-1.875-4.703-2.074v-3.145c2.615 0.199 5.055 1.228 7.022 2.962zM15.063 3.973v3.145c-1.688 0.198-3.335 0.924-4.703 2.074l-2.319-2.257c1.967-1.734 4.407-2.763 7.022-2.962zM6.732 8.278l2.317 2.256c-1.065 1.333-1.74 2.916-1.931 4.529h-3.145c0.192-2.503 1.15-4.858 2.759-6.784zM3.974 16.938h3.145c0.195 1.648 0.888 3.221 1.923 4.519l-2.317 2.256c-1.604-1.924-2.559-4.276-2.751-6.775zM8.032 25.057l2.318-2.257c1.37 1.155 3.020 1.883 4.713 2.082v3.145c-2.619-0.199-5.062-1.231-7.031-2.97zM16.938 28.027v-3.145c1.692-0.199 3.342-0.927 4.712-2.082l2.318 2.257c-1.968 1.739-4.412 2.771-7.031 2.97zM25.275 23.712l-2.317-2.256c1.061-1.331 1.733-2.91 1.923-4.519h3.145c-0.192 2.498-1.147 4.851-2.751 6.775z"></path>
<path d="M16 12.563c-1.895 0-3.438 1.542-3.438 3.438s1.542 3.438 3.438 3.438 3.438-1.542 3.438-3.438-1.542-3.438-3.438-3.438zM16 17.563c-0.862 0-1.563-0.701-1.563-1.563s0.701-1.563 1.563-1.563 1.563 0.701 1.563 1.563-0.701 1.563-1.563 1.563z"></path>
</svg>
