<!-- Generated by IcoMoon.io -->
<svg version="1.1" xmlns="http://www.w3.org/2000/svg" width="226" height="26" fill="white" viewBox="0 0 32 32">
<title>footerarrow</title>
<path  d="M16.465 0.196c-0.26-0.261-0.682-0.261-0.943-0.001-0 0-0.001 0.001-0.001 0.001l-12 12c-0.256 0.265-0.248 0.687 0.016 0.943 0.258 0.249 0.668 0.249 0.926 0l10.863-10.863v29.057c0 0.368 0.299 0.667 0.667 0.667s0.667-0.299 0.667-0.667v-29.057l10.861 10.861c0.256 0.265 0.678 0.272 0.943 0.016s0.272-0.678 0.016-0.943c-0.005-0.006-0.011-0.011-0.016-0.016l-11.999-11.999z"></path>
<path  d="M27.992 13.333c-0.177 0-0.347-0.070-0.472-0.195l-11.528-11.529-11.528 11.529c-0.265 0.256-0.687 0.248-0.943-0.016-0.249-0.258-0.249-0.668 0-0.926l12-12c0.26-0.26 0.682-0.26 0.943 0l12 12c0.26 0.261 0.259 0.683-0.002 0.943-0.125 0.124-0.294 0.194-0.471 0.194z"></path>
<path  d="M15.992 32c-0.368 0-0.667-0.299-0.667-0.667v-30.667c0-0.368 0.299-0.667 0.667-0.667s0.667 0.298 0.667 0.667v30.667c-0 0.368-0.299 0.667-0.667 0.667z"></path>
</svg>
