
<svg version="1.1" xmlns="http://www.w3.org/2000/svg" viewBox="0 0 32 32" width="34" height="34" fill="#fbc566"  id="internet">
<title>internet</title>
<path d="M29.041 6.764c-0.001-0.010-0.002-0.021-0.003-0.031-0.040-0.057-0.089-0.106-0.13-0.162-0.299-0.407-0.615-0.799-0.949-1.175-0.091-0.103-0.183-0.205-0.277-0.305-0.344-0.368-0.704-0.719-1.081-1.053-0.070-0.062-0.135-0.126-0.205-0.186-0.93-0.796-1.948-1.484-3.034-2.049-0.043-0.023-0.089-0.042-0.134-0.065-0.484-0.246-0.98-0.467-1.486-0.662-0.114-0.041-0.218-0.080-0.327-0.114-0.45-0.162-0.908-0.304-1.372-0.426-0.137-0.037-0.274-0.074-0.414-0.106-0.457-0.106-0.915-0.188-1.382-0.254-0.142-0.021-0.281-0.048-0.424-0.065-1.204-0.146-2.422-0.146-3.626 0-0.143 0.017-0.282 0.045-0.424 0.065-0.468 0.066-0.929 0.147-1.382 0.254-0.139 0.032-0.277 0.070-0.414 0.106-0.467 0.122-0.924 0.264-1.372 0.426-0.114 0.039-0.218 0.078-0.327 0.114-0.506 0.195-1.002 0.416-1.486 0.662-0.045 0.023-0.090 0.042-0.134 0.065-1.090 0.564-2.111 1.251-3.044 2.049-0.070 0.061-0.135 0.125-0.205 0.186-0.381 0.335-0.742 0.686-1.081 1.053-0.094 0.101-0.185 0.202-0.277 0.305-0.335 0.376-0.651 0.767-0.949 1.175-0.041 0.056-0.090 0.105-0.13 0.162-0.005 0.010-0.010 0.020-0.014 0.031-3.943 5.526-3.943 12.946 0 18.472 0.004 0.011 0.008 0.021 0.014 0.031 0.040 0.057 0.089 0.106 0.13 0.162 0.298 0.407 0.614 0.799 0.949 1.175 0.091 0.103 0.183 0.205 0.277 0.305 0.345 0.368 0.705 0.719 1.081 1.053 0.070 0.062 0.135 0.126 0.205 0.186 0.93 0.796 1.948 1.484 3.034 2.049 0.043 0.023 0.089 0.042 0.134 0.065 0.484 0.246 0.98 0.467 1.486 0.662 0.114 0.041 0.218 0.080 0.327 0.114 0.45 0.162 0.908 0.304 1.372 0.426 0.137 0.037 0.274 0.074 0.414 0.106 0.457 0.106 0.915 0.188 1.382 0.254 0.142 0.021 0.281 0.048 0.424 0.065 1.204 0.146 2.422 0.146 3.626 0 0.143-0.017 0.282-0.045 0.424-0.065 0.468-0.066 0.929-0.148 1.382-0.254 0.139-0.032 0.277-0.070 0.414-0.106 0.468-0.122 0.925-0.264 1.372-0.426 0.114-0.039 0.218-0.078 0.327-0.114 0.506-0.195 1.002-0.416 1.486-0.662 0.045-0.023 0.090-0.042 0.134-0.065 1.086-0.565 2.104-1.252 3.034-2.049 0.070-0.061 0.135-0.125 0.205-0.186 0.381-0.335 0.742-0.686 1.081-1.053 0.094-0.101 0.185-0.202 0.277-0.305 0.335-0.377 0.651-0.768 0.949-1.175 0.041-0.056 0.090-0.105 0.13-0.162 0.005-0.010 0.010-0.020 0.014-0.031 3.943-5.526 3.943-12.946 0-18.471zM27.737 8.927c1.093 1.801 1.753 3.83 1.929 5.93h-6.848c-0.084-1.362-0.298-2.713-0.64-4.034 1.934-0.362 3.807-1.001 5.559-1.895zM18.914 2.597c0.064 0.015 0.126 0.035 0.19 0.050 0.409 0.096 0.815 0.206 1.212 0.343 0.061 0.021 0.12 0.045 0.18 0.066 0.393 0.137 0.781 0.289 1.16 0.457 0.066 0.031 0.131 0.065 0.198 0.096 0.364 0.173 0.719 0.36 1.065 0.561l0.229 0.138c0.329 0.201 0.649 0.417 0.96 0.646 0.080 0.058 0.16 0.114 0.239 0.178 0.305 0.229 0.597 0.474 0.876 0.735 0.073 0.066 0.149 0.131 0.221 0.2 0.293 0.278 0.572 0.572 0.841 0.876 0.034 0.040 0.071 0.077 0.105 0.114-1.548 0.738-3.188 1.264-4.876 1.566-0.782-2.15-1.815-4.199-3.077-6.107 0.159 0.029 0.321 0.045 0.478 0.079zM11.474 14.857c0.090-1.237 0.301-2.462 0.629-3.658 1.295 0.154 2.598 0.23 3.903 0.229 1.306-0 2.61-0.079 3.906-0.234 0.327 1.198 0.537 2.425 0.625 3.664h-9.063zM20.537 17.143c-0.090 1.237-0.301 2.462-0.629 3.658-1.295-0.154-2.599-0.23-3.903-0.229-1.306-0.001-2.61 0.075-3.906 0.229-0.327-1.196-0.536-2.421-0.625-3.658h9.063zM16.006 3.027c1.301 1.844 2.371 3.84 3.186 5.945-1.058 0.112-2.122 0.169-3.186 0.169-1.063-0.001-2.125-0.058-3.183-0.17 0.816-2.103 1.885-4.099 3.183-5.943zM5.729 6.944c0.269-0.304 0.549-0.598 0.841-0.876 0.072-0.069 0.147-0.134 0.221-0.2 0.282-0.257 0.574-0.502 0.876-0.735 0.079-0.061 0.159-0.114 0.239-0.178 0.311-0.229 0.631-0.444 0.96-0.646l0.229-0.138c0.347-0.203 0.702-0.39 1.065-0.561 0.066-0.031 0.132-0.065 0.198-0.096 0.38-0.171 0.767-0.324 1.16-0.457 0.059-0.022 0.114-0.046 0.179-0.066 0.397-0.133 0.8-0.242 1.212-0.343 0.064-0.015 0.126-0.035 0.191-0.049 0.157-0.034 0.319-0.050 0.478-0.079-1.263 1.908-2.296 3.958-3.079 6.108-1.688-0.302-3.328-0.828-4.876-1.566 0.034-0.040 0.071-0.077 0.105-0.116zM4.274 8.927c1.752 0.895 3.624 1.533 5.558 1.895-0.342 1.321-0.556 2.672-0.639 4.034h-6.848c0.175-2.099 0.835-4.129 1.929-5.93zM4.274 23.073c-1.093-1.801-1.753-3.83-1.929-5.93h6.848c0.084 1.362 0.298 2.713 0.64 4.034-1.934 0.362-3.807 1.001-5.559 1.895zM13.097 29.403c-0.064-0.015-0.126-0.035-0.19-0.050-0.409-0.096-0.815-0.206-1.212-0.343-0.061-0.021-0.12-0.045-0.18-0.066-0.393-0.137-0.781-0.289-1.16-0.457-0.066-0.031-0.132-0.065-0.198-0.096-0.364-0.173-0.719-0.36-1.065-0.561l-0.229-0.138c-0.329-0.201-0.649-0.416-0.96-0.646-0.080-0.058-0.16-0.114-0.239-0.178-0.305-0.229-0.597-0.474-0.876-0.735-0.073-0.066-0.149-0.131-0.221-0.2-0.293-0.278-0.572-0.572-0.841-0.876-0.034-0.040-0.071-0.077-0.105-0.114 1.548-0.738 3.188-1.264 4.876-1.566 0.782 2.15 1.815 4.199 3.077 6.107-0.159-0.028-0.321-0.044-0.478-0.079zM16.006 28.973c-1.301-1.844-2.371-3.84-3.186-5.945 2.117-0.228 4.253-0.228 6.37 0l-0.001 0.001c-0.816 2.103-1.885 4.099-3.183 5.943zM26.283 25.056c-0.269 0.304-0.549 0.598-0.841 0.876-0.072 0.069-0.148 0.134-0.221 0.2-0.282 0.258-0.574 0.503-0.876 0.735-0.079 0.061-0.159 0.12-0.239 0.178-0.311 0.229-0.631 0.444-0.96 0.646l-0.229 0.138c-0.346 0.202-0.701 0.389-1.065 0.561-0.066 0.031-0.131 0.065-0.198 0.096-0.38 0.171-0.767 0.324-1.16 0.457-0.059 0.022-0.114 0.046-0.179 0.066-0.397 0.133-0.8 0.242-1.212 0.343-0.064 0.015-0.126 0.035-0.191 0.049-0.157 0.034-0.319 0.050-0.478 0.079 1.262-1.907 2.296-3.957 3.077-6.107 1.688 0.302 3.328 0.828 4.876 1.566-0.033 0.039-0.070 0.075-0.104 0.115zM27.737 23.073c-1.752-0.895-3.624-1.533-5.558-1.895 0.342-1.321 0.556-2.672 0.639-4.034h6.848c-0.175 2.099-0.835 4.129-1.929 5.93z"></path>
</svg>
