<!-- Generated by IcoMoon.io -->
<svg version="1.1" xmlns="http://www.w3.org/2000/svg" width="32" height="32" fill="#0baea3" viewBox="0 0 32 32">
<title>light--green</title>
<path d="M22.305 7.783c-1.687-1.675-3.921-2.596-6.297-2.596-0.022 0-0.043 0-0.065 0-2.57 0.018-5.014 1.153-6.705 3.113-0.225 0.261-0.196 0.656 0.065 0.881s0.656 0.196 0.882-0.065c1.456-1.687 3.558-2.664 5.767-2.68 0.019-0 0.037-0 0.056-0 2.044 0 3.966 0.792 5.417 2.233 1.465 1.454 2.271 3.392 2.271 5.456 0 1.971-0.745 3.846-2.098 5.278-1.421 1.504-2.254 3.407-2.379 5.408h-1.219v-6.625h0.396c0.908 0 1.646-0.738 1.646-1.646v-0.083c0-0.908-0.738-1.646-1.646-1.646s-1.646 0.738-1.646 1.646v0.479h-1.5v-0.479c0-0.908-0.738-1.646-1.646-1.646h-0.106c-0.908 0-1.646 0.738-1.646 1.646v0.083c0 0.908 0.738 1.646 1.646 1.646h0.502v6.625h-1.204c-0.121-2.023-0.938-3.909-2.332-5.357-1.439-1.496-2.2-3.465-2.144-5.544 0.009-0.345-0.263-0.632-0.608-0.642-0.347-0.012-0.632 0.263-0.642 0.608-0.066 2.416 0.819 4.705 2.492 6.444 1.289 1.34 1.998 3.122 1.998 5.019v1.809c0 1.337 1.014 2.441 2.313 2.585v0.141c-0 1.172 0.953 2.125 2.125 2.125s2.125-0.953 2.125-2.125v-0.14c1.306-0.137 2.327-1.245 2.327-2.587v-1.808c0-1.872 0.73-3.675 2.055-5.078 1.573-1.665 2.439-3.845 2.439-6.136 0-2.4-0.938-4.652-2.641-6.343zM18 16.459c0-0.218 0.178-0.396 0.396-0.396s0.396 0.178 0.396 0.396v0.083c0 0.218-0.178 0.396-0.396 0.396h-0.396v-0.479zM15.25 18.188h1.5v6.625h-1.5v-6.625zM13.498 16.938c-0.218 0-0.396-0.178-0.396-0.396v-0.083c0-0.218 0.178-0.396 0.396-0.396h0.106c0.218 0 0.396 0.178 0.396 0.396v0.479h-0.502zM16.875 29.875c0 0.483-0.392 0.875-0.875 0.875s-0.875-0.392-0.875-0.875v-0.125h1.75v0.125zM19.202 27.149c0 0.745-0.606 1.351-1.351 1.351h-3.688c-0.745 0-1.351-0.606-1.351-1.351v-1.086h6.39v1.086z"></path>
<path d="M16 0c-0.345 0-0.625 0.28-0.625 0.625v2.334c0 0.345 0.28 0.625 0.625 0.625s0.625-0.28 0.625-0.625v-2.334c0-0.345-0.28-0.625-0.625-0.625z"></path>
<path d="M29.501 13.501h-2.334c-0.345 0-0.625 0.28-0.625 0.625s0.28 0.625 0.625 0.625h2.334c0.345 0 0.625-0.28 0.625-0.625s-0.28-0.625-0.625-0.625z"></path>
<path d="M4.833 13.501h-2.334c-0.345 0-0.625 0.28-0.625 0.625s0.28 0.625 0.625 0.625h2.334c0.345 0 0.625-0.28 0.625-0.625s-0.28-0.625-0.625-0.625z"></path>
<path d="M8.545 5.788l-1.65-1.65c-0.244-0.244-0.64-0.244-0.884 0s-0.244 0.64 0 0.884l1.65 1.65c0.122 0.122 0.282 0.183 0.442 0.183s0.32-0.061 0.442-0.183c0.244-0.244 0.244-0.64 0-0.884z"></path>
<path d="M25.989 4.137c-0.244-0.244-0.64-0.244-0.884 0l-1.65 1.65c-0.244 0.244-0.244 0.64 0 0.884 0.122 0.122 0.282 0.183 0.442 0.183s0.32-0.061 0.442-0.183l1.65-1.65c0.244-0.244 0.244-0.64 0-0.884z"></path>
<path d="M21.851 11.766c-0.468-1.162-1.265-2.152-2.303-2.861-1.052-0.718-2.282-1.097-3.559-1.097-0.015 0-0.030 0-0.046 0-0.345 0.002-0.623 0.284-0.621 0.629 0.002 0.344 0.282 0.621 0.625 0.621 0.001 0 0.003 0 0.004 0 0.012-0 0.025-0 0.037-0 2.081 0 3.925 1.243 4.703 3.175 0.098 0.244 0.332 0.392 0.58 0.392 0.078 0 0.157-0.015 0.233-0.046 0.32-0.129 0.475-0.493 0.346-0.813z"></path>
<path d="M22.124 13.684c-0.116-0.116-0.277-0.183-0.442-0.183s-0.326 0.067-0.442 0.183c-0.116 0.116-0.183 0.277-0.183 0.442s0.066 0.326 0.183 0.442c0.116 0.116 0.277 0.183 0.442 0.183s0.326-0.067 0.442-0.183c0.116-0.116 0.183-0.277 0.183-0.442s-0.066-0.326-0.183-0.442z"></path>
<path d="M8.786 10.464c-0.116-0.116-0.277-0.182-0.442-0.182s-0.326 0.066-0.442 0.182c-0.116 0.117-0.183 0.277-0.183 0.443s0.067 0.325 0.183 0.442c0.116 0.116 0.277 0.183 0.442 0.183s0.326-0.067 0.442-0.183c0.116-0.117 0.183-0.277 0.183-0.442s-0.067-0.326-0.183-0.443z"></path>
</svg>
