
<svg version="1.1" xmlns="http://www.w3.org/2000/svg" width="32" height="32" fill="#0baea3" viewBox="0 0 32 32">
<title>light</title>
<path d="M13.094 28.032c-0.276 0-0.501-0.224-0.501-0.5s0.224-0.5 0.501-0.5h5.813c0.276 0 0.5 0.224 0.5 0.5s-0.224 0.5-0.5 0.5h-5.813z"></path>
<path d="M13.74 30.017c-0.276 0-0.5-0.224-0.5-0.5s0.225-0.5 0.5-0.5h4.521c0.276 0 0.5 0.224 0.5 0.5s-0.224 0.5-0.5 0.5h-4.521z"></path>
<path d="M15.53 23.104c0 0.275-0.223 0.498-0.498 0.498s-0.498-0.223-0.498-0.498c-0.002-2.105-0.063-3.678-0.353-5.134-0.287-1.44-0.802-2.774-1.716-4.42-0.133-0.241-0.047-0.544 0.193-0.677 0.241-0.133 0.544-0.047 0.678 0.193 0.97 1.748 1.519 3.171 1.825 4.709 0.303 1.519 0.367 3.15 0.369 5.329z"></path>
<path d="M17.467 23.104c0 0.275-0.223 0.498-0.498 0.498s-0.498-0.223-0.498-0.498c0.002-2.179 0.066-3.809 0.369-5.329 0.306-1.539 0.855-2.961 1.825-4.709 0.133-0.241 0.438-0.327 0.677-0.193 0.241 0.133 0.326 0.438 0.193 0.677-0.914 1.646-1.428 2.981-1.716 4.42-0.29 1.456-0.351 3.029-0.352 5.134z"></path>
<path d="M12.748 13.782c-0.262-0.083-0.406-0.365-0.323-0.627 0.084-0.262 0.365-0.406 0.627-0.323 0.348 0.113 0.649 0.264 0.927 0.403l0.027 0.015c0.434 0.219 0.796 0.39 1.065 0.171l0.615-0.501c0.214-0.173 0.528-0.141 0.701 0.073s0.141 0.528-0.073 0.701l-0.615 0.501c-0.766 0.623-1.392 0.32-2.146-0.058l-0.023-0.010c-0.244-0.123-0.508-0.255-0.782-0.344z"></path>
<path d="M16.501 2.438c0 0.276-0.224 0.5-0.5 0.5s-0.5-0.224-0.5-0.5v-1.938c0-0.276 0.224-0.5 0.5-0.5s0.5 0.224 0.5 0.5v1.938z"></path>
<path d="M18.948 12.832c0.262-0.084 0.544 0.060 0.627 0.323 0.084 0.262-0.060 0.544-0.323 0.627-0.274 0.089-0.538 0.222-0.783 0.345l-0.023 0.010c-0.753 0.378-1.38 0.682-2.146 0.058l-0.615-0.501c-0.214-0.173-0.246-0.488-0.073-0.701s0.487-0.246 0.701-0.073l0.615 0.501c0.269 0.219 0.629 0.047 1.065-0.171l0.027-0.015c0.279-0.141 0.58-0.292 0.928-0.404z"></path>
<path d="M22.291 7.772c1.609 1.609 2.606 3.834 2.606 6.291 0 0.96-0.154 1.889-0.438 2.758-0.293 0.899-0.727 1.738-1.274 2.485-0.918 1.255-1.662 2.079-2.241 2.72-1.041 1.151-1.497 1.655-1.497 3.339 0 0.276-0.224 0.5-0.5 0.5h-5.853c-0.276 0-0.501-0.224-0.501-0.5 0-1.667-0.466-2.176-1.499-3.308l-0.001-0.001-0.001 0.001c-0.584-0.64-1.336-1.464-2.277-2.75-0.547-0.748-0.981-1.587-1.274-2.486-0.283-0.869-0.438-1.798-0.438-2.757 0-1.202 0.241-2.352 0.676-3.402l0.009-0.020c0.452-1.083 1.11-2.058 1.922-2.869 0.817-0.817 1.797-1.477 2.889-1.929v-0.001c1.050-0.435 2.2-0.676 3.402-0.676 1.2 0 2.349 0.241 3.4 0.676 1.090 0.452 2.072 1.114 2.889 1.93v0zM23.896 14.063c0-2.18-0.884-4.154-2.313-5.583-0.73-0.73-1.6-1.318-2.563-1.716-0.927-0.384-1.948-0.597-3.021-0.597-1.072 0-2.093 0.213-3.019 0.597v-0.001l-0.002 0.001c-0.963 0.398-1.831 0.985-2.561 1.716-0.723 0.723-1.307 1.585-1.706 2.537l-0.010 0.027c-0.383 0.926-0.597 1.947-0.597 3.019 0 0.856 0.136 1.681 0.386 2.449 0.261 0.799 0.646 1.543 1.129 2.205 0.903 1.235 1.639 2.041 2.21 2.668l-0.001 0.001c1.113 1.216 1.666 1.824 1.752 3.48h4.877c0.085-1.668 0.628-2.27 1.746-3.505 0.558-0.618 1.276-1.413 2.175-2.642 0.483-0.661 0.868-1.405 1.128-2.204 0.252-0.771 0.389-1.595 0.389-2.452z"></path>
<path d="M14.386 32c-0.276 0-0.5-0.224-0.5-0.5s0.224-0.5 0.5-0.5h3.229c0.276 0 0.5 0.224 0.5 0.5s-0.224 0.5-0.5 0.5h-3.229z"></path>
<path d="M22.135 4.214c-0.137 0.237-0.442 0.32-0.68 0.183-0.238-0.136-0.32-0.442-0.183-0.68l0.969-1.678c0.136-0.238 0.442-0.32 0.68-0.183s0.32 0.442 0.183 0.68l-0.969 1.678z"></path>
<path d="M10.729 3.718c0.136 0.237 0.055 0.543-0.183 0.679-0.238 0.136-0.543 0.054-0.679-0.183l-0.969-1.678c-0.136-0.237-0.054-0.543 0.183-0.679s0.544-0.054 0.68 0.183l0.968 1.678z"></path>
<path d="M6.371 7.708c0.237 0.136 0.32 0.442 0.183 0.68-0.136 0.238-0.442 0.32-0.679 0.183l-1.678-0.969c-0.239-0.136-0.321-0.442-0.184-0.679 0.136-0.239 0.442-0.32 0.68-0.183l1.678 0.968z"></path>
<path d="M26.125 8.572c-0.239 0.136-0.544 0.054-0.68-0.183s-0.054-0.544 0.183-0.68l1.678-0.969c0.238-0.136 0.544-0.054 0.68 0.183s0.054 0.544-0.183 0.68l-1.678 0.969z"></path>
<path d="M10.806 16.039c0.106 0.253-0.012 0.546-0.266 0.652s-0.546-0.013-0.652-0.266c-0.17-0.402-0.302-0.826-0.39-1.263-0.086-0.432-0.133-0.874-0.133-1.318 0-0.276 0.225-0.5 0.5-0.5 0.276 0 0.5 0.225 0.5 0.5 0 0.391 0.039 0.767 0.11 1.123 0.074 0.371 0.186 0.731 0.33 1.072v0zM10.806 11.648c-0.106 0.253-0.399 0.372-0.652 0.266s-0.372-0.399-0.266-0.652c0.168-0.397 0.373-0.773 0.607-1.122l0.001-0.001-0.001-0.001c0.241-0.356 0.514-0.688 0.813-0.986 0.296-0.296 0.627-0.569 0.987-0.811v-0.001c0.346-0.233 0.724-0.439 1.124-0.607 0.401-0.17 0.824-0.302 1.262-0.39 0.432-0.088 0.876-0.133 1.319-0.133 0.276 0 0.5 0.224 0.5 0.5s-0.224 0.5-0.5 0.5c-0.392 0-0.769 0.039-1.124 0.109-0.372 0.074-0.731 0.188-1.071 0.331-0.33 0.14-0.649 0.314-0.952 0.518v0h-0.001c-0.295 0.198-0.576 0.431-0.836 0.692-0.257 0.257-0.491 0.54-0.692 0.839l-0.001-0.001c-0.203 0.301-0.377 0.62-0.518 0.952z"></path>
</svg>
