<svg xmlns="http://www.w3.org/2000/svg" xmlns:xlink="http://www.w3.org/1999/xlink" width="39" height="13" id="arrowicon"><defs><path d="M38.55 5.76c-.79-.55-7.16-4.91-7.96-5.45-.59-.41-1.56-.41-2.15 0-.6.41-.59 1.07 0 1.48.36.25 2.14 1.47 5.35 3.66H1.52C.68 5.45 0 5.92 0 6.5c0 .58.68 1.05 1.52 1.05h32.27c-3.21 2.19-4.99 3.41-5.35 3.66-.59.41-.6 1.07 0 1.48.59.41 1.56.41 2.15 0 .8-.54 7.17-4.9 7.96-5.45.6-.41.6-1.07 0-1.48z" id="a"/></defs><use xlink:href="#a"/><use xlink:href="#a" fill-opacity="0" stroke="#000" stroke-opacity="0"/></svg>