<svg xmlns="http://www.w3.org/2000/svg" width="37" height="36"><path data-name="4" d="M24.71 23.15a1.372 1.372 0 111.59-1.36.709.709 0 00.72.71.717.717 0 00.73-.71 2.835 2.835 0 00-2.32-2.69v-.38a.72.72 0 00-1.44 0v.38a2.826 2.826 0 00-2.31 2.69 2.919 2.919 0 003.03 2.78 1.372 1.372 0 11-1.59 1.35.72.72 0 00-1.44 0 2.828 2.828 0 002.31 2.7v.31a.72.72 0 001.44 0v-.31a2.837 2.837 0 002.32-2.7 2.92 2.92 0 00-3.04-2.77zm7.92-4.23a9.484 9.484 0 00-3.85-3.36.72.72 0 00-.96.34.7.7 0 00.33.95 7.769 7.769 0 013.59 10.72.707.707 0 00.3.97.764.764 0 00.33.08.728.728 0 00.64-.38 9.115 9.115 0 00-.38-9.32zm-6.78-4.26h-.05a.71.71 0 100 1.42h.04a.73.73 0 00.73-.71.715.715 0 00-.72-.71zm-4.57 16.3a7.781 7.781 0 01-3.59-10.73.7.7 0 00-.3-.96.722.722 0 00-.97.3 9.115 9.115 0 00.38 9.32 9.387 9.387 0 003.85 3.35.7.7 0 00.96-.33.7.7 0 00-.33-.95zm2.35.77h-.04a.724.724 0 00-.73.71.715.715 0 00.72.71h.05a.71.71 0 100-1.42zM28 12.25a3.6 3.6 0 00-.32-.58h1.88a3.275 3.275 0 100-6.55h-5.79a3.177 3.177 0 00.58-1.85A3.3 3.3 0 0021.03 0H3.32a3.27 3.27 0 100 6.54h5.79a3.223 3.223 0 00-.58 1.85 3.177 3.177 0 00.58 1.85H7.23a3.306 3.306 0 00-3.33 3.28 3.231 3.231 0 010 5.12 3.231 3.231 0 010 5.12 3.231 3.231 0 010 5.12 3.306 3.306 0 003.33 3.28h8.51A12.369 12.369 0 0024.71 36 12.075 12.075 0 0028 12.25zm1.56-5.71a1.85 1.85 0 110 3.7H11.85a1.85 1.85 0 110-3.7h17.71zM3.32 5.12a1.85 1.85 0 110-3.7h17.71a1.85 1.85 0 110 3.7H3.32zm3.91 6.55h17.7a1.891 1.891 0 01.82.18c-.34-.03-.69-.04-1.04-.04a12.335 12.335 0 00-8.69 3.56H7.23a1.85 1.85 0 110-3.7zm0 5.12h7.56a11.925 11.925 0 00-1.86 3.7h-5.7a1.85 1.85 0 110-3.7zm0 5.12h5.37a11.963 11.963 0 00-.05 3.7H7.23a1.85 1.85 0 110-3.7zm0 8.82a1.85 1.85 0 110-3.7h5.62a11.726 11.726 0 001.73 3.7H7.23zm17.48 3.85A10.676 10.676 0 1135.55 23.9a10.777 10.777 0 01-10.84 10.68z" fill="#00ab9f" fill-rule="evenodd"/></svg>