<!-- Generated by IcoMoon.io -->
<svg version="1.1" xmlns="http://www.w3.org/2000/svg" width="32" height="32" fill='#8350e3' viewBox="0 0 32 32">
<title>ok</title>
<path d="M24.196 8.727l-1.562 3.050 1.849-9.204c0.124-0.571 0.007-1.167-0.322-1.65s-0.842-0.809-1.418-0.903c-1.146-0.156-2.217 0.603-2.449 1.736l-0.983 4.321-1.041 4.824-0.123-8.279c-0.017-1.179-0.987-2.12-2.165-2.102s-2.12 0.987-2.102 2.165v9.336l-0.8-1.684c-0.446-0.954-1.523-1.438-2.532-1.139l-2.87 0.844c-0.344 0.106-0.643 0.324-0.849 0.618l-1.396 1.987c-0.363 0.505-0.472 1.15-0.295 1.747 0.003 0.008 0.007 0.015 0.010 0.023-0.799 0.097-1.401 0.774-1.403 1.579v4.132c0 0.43 0.173 0.842 0.48 1.142l5.186 4.9c0.171 0.168 0.303 0.371 0.387 0.595 0.094 0.231 0.21 0.453 0.348 0.661v2.973c0 0.884 0.716 1.6 1.601 1.6h8.535c0.884 0 1.601-0.716 1.601-1.6v-2.921c0.469-0.622 0.809-1.33 1-2.085 0.303-1.215 0.513-2.452 0.63-3.699 0.072-0.605 0.146-1.219 0.241-1.839 0.173-1.062 0.517-2.088 1.018-3.041l3.299-6.299c0.256-0.527 0.285-1.135 0.079-1.683s-0.628-0.987-1.168-1.214c-1.075-0.426-2.296 0.060-2.784 1.108zM11.072 17.677l-1.13 1.68c-0.152-0.056-0.296-0.133-0.427-0.228l-0.759-0.572c-0.134-0.101-0.213-0.259-0.213-0.427v-0.533c0.001-0.7-0.229-1.381-0.655-1.936 0.23-0.101 0.439-0.243 0.618-0.419l1.232-1.275c0.092-0.082 0.22-0.111 0.338-0.078s0.212 0.124 0.249 0.242l0.796 3.172c0.034 0.126 0.017 0.261-0.047 0.375zM26.563 8.602c0.272 0.114 0.485 0.336 0.587 0.612 0.102 0.267 0.090 0.563-0.033 0.821l-3.293 6.286c-0.555 1.055-0.935 2.194-1.126 3.371-0.097 0.633-0.173 1.259-0.246 1.876-0.111 1.194-0.312 2.378-0.6 3.543-0.329 1.196-1.054 2.622-2.639 2.622-0.294 0-0.533 0.239-0.533 0.534s0.239 0.533 0.533 0.533c0.56 0.002 1.111-0.139 1.601-0.41v2.011c0 0.294-0.239 0.533-0.534 0.533h-8.535c-0.295 0-0.534-0.239-0.534-0.533v-1.978c0.494 0.257 1.044 0.387 1.601 0.378 0.294 0 0.533-0.239 0.533-0.533s-0.239-0.534-0.533-0.534c-0.907 0.062-1.742-0.498-2.027-1.362-0.141-0.369-0.362-0.702-0.645-0.976l-5.175-4.89c-0.1-0.1-0.156-0.236-0.155-0.377v-4.132c-0.002-0.289 0.229-0.527 0.518-0.533 0.569-0.004 1.115 0.219 1.519 0.62s0.63 0.946 0.63 1.514v0.533c0.001 0.504 0.238 0.977 0.64 1.28l0.761 0.571c0.347 0.253 0.747 0.425 1.169 0.504 0.016 0.004 0.030 0.006 0.045 0.009 0.645 0.114 1.309 0.013 1.891-0.286 0.171-0.085 0.283-0.255 0.294-0.445s-0.079-0.372-0.238-0.477c-0.159-0.105-0.362-0.117-0.533-0.032-0.092 0.044-0.187 0.082-0.284 0.112l0.747-1.108c0.225-0.363 0.292-0.802 0.187-1.217l-0.794-3.166c-0.153-0.634-0.72-1.080-1.372-1.079-0.387-0.004-0.758 0.154-1.024 0.435l-1.222 1.263c-0.352 0.345-0.909 0.364-1.284 0.043s-0.442-0.873-0.157-1.274l1.398-1.99c0.070-0.098 0.17-0.17 0.285-0.206l2.862-0.842c0.506-0.151 1.046 0.091 1.27 0.569l1.611 3.401c0.129 0.268 0.427 0.412 0.717 0.347s0.498-0.323 0.499-0.621v-11.244c-0.010-0.589 0.46-1.075 1.049-1.085s1.075 0.46 1.085 1.049l0.176 11.79c0.002 0.34 0.26 0.624 0.598 0.658s0.648-0.191 0.718-0.524l1.781-8.252 0.983-4.321c0.105-0.582 0.645-0.982 1.233-0.913 0.29 0.046 0.548 0.21 0.713 0.453s0.221 0.544 0.157 0.83l-2.458 12.232c-0.064 0.313 0.111 0.625 0.412 0.732s0.634-0.023 0.782-0.306l2.976-5.815c0.242-0.537 0.857-0.799 1.412-0.602z"></path>
<path d="M15.021 17.602c-0.189-0.027-0.378 0.049-0.495 0.198s-0.147 0.351-0.076 0.528c0.071 0.177 0.231 0.303 0.42 0.33 0.96 0.138 3.627 0.832 4.399 2.378 0.132 0.264 0.452 0.371 0.716 0.239s0.371-0.452 0.239-0.716c-1.179-2.357-5.040-2.934-5.203-2.957z"></path>
<path d="M14.61 19.768c-0.178-0.075-0.383-0.049-0.536 0.069s-0.23 0.31-0.201 0.501c0.029 0.191 0.159 0.352 0.339 0.42 0.023 0.010 2.332 0.972 2.332 4.306 0 0.295 0.239 0.534 0.534 0.534s0.533-0.239 0.533-0.534c0-4.048-2.881-5.247-3.002-5.296z"></path>
</svg>
