<!-- Generated by IcoMoon.io -->
<svg version="1.1" xmlns="http://www.w3.org/2000/svg"  viewBox="0 0 32 32" fill="white" id="scrolldown">
<title>scrolldown1</title>
<path  d="M30.803 14.121l-14.811 14.813-14.811-14.813c-0.276-0.267-0.717-0.259-0.984 0.017-0.26 0.27-0.26 0.697 0 0.966l15.304 15.304c0.272 0.272 0.712 0.272 0.984 0l15.304-15.304c0.267-0.276 0.259-0.717-0.017-0.984-0.27-0.26-0.697-0.26-0.967 0l-0.001 0z"></path>
<path  d="M30.803 1.6l-14.811 14.813-14.811-14.813c-0.276-0.267-0.717-0.259-0.984 0.017-0.26 0.27-0.26 0.697 0 0.967l15.304 15.304c0.272 0.272 0.712 0.272 0.984 0l15.304-15.304c0.276-0.267 0.284-0.707 0.017-0.984s-0.707-0.284-0.984-0.017c-0.006 0.006-0.011 0.011-0.017 0.017h-0.001z"></path>
<path d="M15.991 30.613c-0.185 0-0.362-0.073-0.492-0.203l-15.304-15.304c-0.267-0.276-0.259-0.717 0.017-0.984 0.27-0.26 0.697-0.26 0.966 0l14.813 14.811 14.811-14.813c0.276-0.267 0.717-0.259 0.984 0.017 0.26 0.27 0.26 0.697 0 0.967l-15.304 15.304c-0.13 0.131-0.307 0.204-0.491 0.204z"></path>
<path d="M15.991 18.091c-0.185 0-0.362-0.073-0.492-0.203l-15.304-15.304c-0.267-0.276-0.259-0.717 0.017-0.984 0.27-0.26 0.697-0.26 0.967 0l14.813 14.811 14.811-14.813c0.267-0.276 0.707-0.284 0.984-0.017s0.284 0.707 0.017 0.984c-0.006 0.006-0.011 0.011-0.017 0.017l-15.304 15.304c-0.13 0.131-0.307 0.204-0.491 0.204z"></path>
</svg>
