
<svg version="1.1" xmlns="http://www.w3.org/2000/svg" width="20" height="20" fill="white" viewBox="0 0 32 32">
<title>dna</title>
<path d="M22.594 31.063c0 0.518 0.42 0.938 0.938 0.938s0.938-0.42 0.938-0.938c0-6.559-2.722-10.408-5.838-13.717-0.215 0.216-0.429 0.431-0.642 0.644-0.23 0.23-0.458 0.458-0.683 0.684 0.313 0.334 0.62 0.671 0.919 1.014h-4.449c0.905-1.042 1.889-2.026 2.888-3.025 3.838-3.838 7.806-7.806 7.806-15.725 0-0.518-0.42-0.938-0.938-0.938s-0.938 0.42-0.938 0.938c0 0.322-0.007 0.637-0.021 0.945h-13.145c-0.014-0.308-0.021-0.623-0.021-0.945 0-0.518-0.42-0.938-0.938-0.938s-0.938 0.42-0.938 0.938c0 6.559 2.722 10.408 5.838 13.717 0.215-0.216 0.429-0.431 0.642-0.644 0.23-0.23 0.458-0.458 0.683-0.684-0.303-0.323-0.601-0.649-0.89-0.982h4.392c-0.898 1.030-1.871 2.004-2.859 2.992-3.838 3.838-7.806 7.806-7.806 15.725 0 0.518 0.42 0.938 0.938 0.938s0.938-0.42 0.938-0.938c0-0.311 0.007-0.615 0.020-0.913h13.147c0.013 0.298 0.020 0.601 0.020 0.913zM19.7 21.563c0.536 0.765 1.018 1.576 1.43 2.456h-10.261c0.411-0.879 0.894-1.691 1.43-2.456zM22.392 3.758c-0.127 0.848-0.312 1.639-0.545 2.382h-11.694c-0.233-0.743-0.418-1.533-0.545-2.382zM12.323 10.47c-0.538-0.765-1.024-1.576-1.438-2.456h10.23c-0.414 0.879-0.9 1.691-1.438 2.456zM9.603 28.275c0.126-0.848 0.309-1.639 0.54-2.382h11.714c0.231 0.743 0.414 1.533 0.54 2.382z"></path>
</svg>
