<svg version="1.1" xmlns="http://www.w3.org/2000/svg" width="32" height="32" fill="#fd642f" viewBox="0 0 32 32">
<title>support</title>
<path d="M31.87 13.647l-5.356-6.958c-0.198-0.257-0.56-0.321-0.834-0.146l-3.458 2.199h-4.51c-0.058 0-0.116 0.012-0.173 0.029l-3.497 1.007-3.628-0.992-3.526-2.242c-0.27-0.171-0.625-0.113-0.825 0.135l-5.924 7.338c-0.213 0.264-0.178 0.649 0.079 0.87l3.105 2.672 2.786 3.754c-0.815 0.868-0.799 2.237 0.049 3.085 0.376 0.375 0.854 0.588 1.345 0.637-0.017 0.111-0.026 0.224-0.026 0.339 0 0.592 0.231 1.149 0.649 1.568s0.976 0.65 1.568 0.65c0.008 0 0.016-0 0.024-0.001-0 0.015-0.001 0.030-0.001 0.045 0 0.592 0.231 1.149 0.649 1.568s0.976 0.649 1.568 0.649c0.117 0 0.233-0.010 0.346-0.027 0.048 0.493 0.261 0.973 0.638 1.35 0.432 0.432 1 0.648 1.568 0.648s1.136-0.216 1.568-0.648l0.339-0.339 0.142 0.115c0.429 0.415 0.985 0.623 1.542 0.623 0.568 0 1.136-0.216 1.568-0.648 0.441-0.441 0.657-1.023 0.648-1.603 0.579 0.009 1.162-0.207 1.603-0.648s0.657-1.023 0.648-1.602c0.603 0.010 1.176-0.222 1.603-0.649 0.441-0.441 0.657-1.023 0.648-1.603 0.58 0.009 1.162-0.207 1.603-0.648 0.753-0.753 0.85-1.917 0.291-2.776l2.034-4.26 3.058-2.631c0.253-0.218 0.291-0.594 0.088-0.858zM6.688 7.903l2.535 1.612-5.515 6.719-2.21-1.902zM7.045 22.148l0.765-0.765c0.023-0.023 0.048-0.045 0.072-0.066 0.15-0.122 0.331-0.195 0.523-0.212 0.005-0 0.011-0 0.016-0.001 0.027-0.002 0.055-0.004 0.082-0.003 0.262 0.004 0.506 0.111 0.687 0.302 0.354 0.375 0.335 0.987-0.042 1.365l-0.742 0.742c-0.375 0.375-0.986 0.375-1.361 0s-0.375-0.986 0-1.361zM9.014 26.053c-0.182-0.182-0.282-0.423-0.282-0.68s0.1-0.499 0.282-0.681l1.484-1.484c0.284-0.284 0.731-0.362 1.094-0.189 0.374 0.178 0.585 0.585 0.53 0.994-0.029 0.218-0.131 0.424-0.287 0.58l-1.46 1.46c-0.182 0.182-0.424 0.282-0.681 0.282s-0.499-0.1-0.681-0.282zM11.254 28.315c-0.182-0.182-0.282-0.423-0.282-0.68s0.1-0.499 0.282-0.681l1.483-1.484c0.304-0.304 0.791-0.369 1.164-0.153 0.34 0.198 0.518 0.586 0.459 0.973-0.032 0.213-0.133 0.413-0.285 0.565l-1.46 1.46c-0.182 0.182-0.424 0.282-0.681 0.282s-0.499-0.1-0.681-0.282zM13.806 30.288c-0.375-0.375-0.375-0.986 0-1.361l0.765-0.765c0.023-0.023 0.047-0.045 0.072-0.065 0.001-0 0.001-0.001 0.002-0.001 0.124-0.101 0.271-0.169 0.427-0.198 0.004-0 0.007-0.001 0.011-0.001 0.027-0.005 0.054-0.009 0.082-0.011 0.011-0.001 0.022-0.001 0.033-0.002 0.022-0.001 0.045-0.003 0.067-0.002 0.262 0.004 0.506 0.111 0.687 0.302 0.022 0.023 0.043 0.048 0.062 0.073 0.289 0.377 0.25 0.938-0.108 1.296l-0.738 0.738c-0.375 0.375-0.986 0.375-1.361-0zM25.511 23.285c-0.375 0.375-0.986 0.375-1.361 0-0.014-0.014-0.028-0.026-0.043-0.038l-4.035-4.077c-0.244-0.246-0.641-0.248-0.887-0.004s-0.248 0.641-0.005 0.887l4.078 4.121c0 0 0.001 0.001 0.001 0.001 0.375 0.375 0.375 0.986 0 1.361-0.182 0.182-0.424 0.282-0.681 0.282s-0.499-0.1-0.681-0.282l-2.728-2.757c-0.244-0.246-0.641-0.248-0.887-0.005s-0.248 0.641-0.005 0.887l2.687 2.714c0.014 0.017 0.028 0.033 0.044 0.049 0.375 0.375 0.375 0.986 0 1.361s-0.986 0.375-1.362-0l-1.489-1.505c-0.244-0.246-0.641-0.249-0.887-0.005s-0.248 0.641-0.005 0.887l1.448 1.462c0.014 0.017 0.028 0.034 0.044 0.049 0.375 0.375 0.375 0.986 0 1.361s-0.986 0.375-1.361 0c-0.043-0.043-0.094-0.076-0.142-0.114-0.041-0.031-0.052-0.053-0.031-0.103s0.052-0.096 0.073-0.147c0.023-0.057 0.041-0.115 0.060-0.174 0.096-0.31 0.125-0.644 0.081-0.965-0.083-0.617-0.423-1.175-0.937-1.527-0.278-0.19-0.6-0.315-0.933-0.362 0.162-0.713-0.032-1.486-0.537-2.019-0.416-0.439-0.977-0.685-1.581-0.694-0.022-0-0.044-0-0.066 0 0.013-0.576-0.196-1.149-0.593-1.568-0.416-0.439-0.977-0.685-1.581-0.694-0.179-0.002-0.361 0.017-0.535 0.057-0.075-0.52-0.337-1.001-0.733-1.345-0.394-0.341-0.89-0.531-1.418-0.538-0.556-0.008-1.102 0.197-1.515 0.57l-2.426-3.268 5.803-7.069 1.849 0.506-2.415 4.262c-0.292 0.515-0.366 1.114-0.208 1.684s0.529 1.046 1.044 1.338c0.032 0.018 0.065 0.036 0.098 0.052 0.002 0.001 0.005 0.002 0.008 0.004 0.087 0.043 0.176 0.080 0.266 0.112 0.421 0.146 0.875 0.162 1.313 0.041 0.571-0.158 1.046-0.529 1.338-1.044l1.57-2.77 2.803 0.199 7.463 7.462c0.375 0.375 0.375 0.986-0 1.361zM25.771 20.409l-7.001-7c-0.013-0.013-0.027-0.026-0.041-0.038-0.101-0.084-0.226-0.135-0.358-0.144l-3.431-0.243c-0.237-0.016-0.473 0.11-0.59 0.317l-1.765 3.114c-0.127 0.224-0.333 0.385-0.581 0.453s-0.507 0.036-0.731-0.090c-0.224-0.127-0.385-0.333-0.453-0.581s-0.037-0.508 0.090-0.731l2.356-4.157 0.955-0.275c0.006-0.002 0.012-0.004 0.019-0.006l3.563-1.029h4.305l5.374 6.832zM28.302 15.844l-4.97-6.321 2.536-1.613 4.644 6.032z"></path>
<path d="M19.386 7.564c0.161 0 0.321-0.061 0.444-0.184l4.286-4.286c0.245-0.245 0.245-0.642 0-0.887s-0.642-0.245-0.887 0l-4.286 4.286c-0.245 0.245-0.245 0.642 0 0.887 0.123 0.123 0.283 0.184 0.444 0.184z"></path>
<path d="M12.17 7.381c0.123 0.123 0.283 0.184 0.444 0.184s0.321-0.061 0.444-0.184c0.245-0.245 0.245-0.642 0-0.887l-4.286-4.286c-0.245-0.245-0.642-0.245-0.887 0s-0.245 0.642 0 0.887z"></path>
<path d="M16 7.564c0.346 0 0.627-0.281 0.627-0.627v-3.547c0-0.346-0.281-0.627-0.627-0.627s-0.627 0.281-0.627 0.627v3.547c0 0.346 0.281 0.627 0.627 0.627z"></path>
<path d="M15.421 1.116c0.1 0.241 0.348 0.4 0.61 0.386 0.259-0.013 0.486-0.188 0.566-0.435 0.080-0.248-0.007-0.531-0.215-0.689-0.212-0.162-0.508-0.171-0.73-0.024-0.248 0.164-0.344 0.489-0.231 0.762z"></path>
</svg>
