<!-- Generated by IcoMoon.io -->
<svg version="1.1" xmlns="http://www.w3.org/2000/svg" width="36" height="36" fill="#fbc566" viewBox="0 0 32 32">
<title>target</title>
<path d="M29.17 6.745c-0.045-0.153-0.168-0.269-0.322-0.304l-0.003-0.001-2.681-0.606-0.606-2.681c-0.045-0.197-0.219-0.341-0.427-0.341-0.121 0-0.23 0.049-0.309 0.128v0l-3.084 3.084c-1.839-1.127-4.064-1.794-6.446-1.794-6.891 0-12.477 5.586-12.477 12.477s5.586 12.477 12.477 12.477c6.891 0 12.477-5.586 12.477-12.477 0-2.382-0.667-4.608-1.825-6.501l0.031 0.055 3.085-3.085c0.079-0.079 0.128-0.188 0.128-0.309 0-0.043-0.006-0.085-0.018-0.125l0.001 0.003zM26.894 16.709c-0.001 6.407-5.195 11.6-11.601 11.6s-11.601-5.194-11.601-11.602 5.194-11.601 11.601-11.601c2.139 0 4.142 0.579 5.862 1.588l-0.055-0.030-1.416 1.416c-0.012 0.013-0.023 0.027-0.033 0.042l-0.001 0.002c-1.272-0.661-2.778-1.049-4.374-1.049-5.325 0-9.641 4.316-9.641 9.641s4.316 9.641 9.641 9.641c5.325 0 9.641-4.316 9.641-9.641 0-1.592-0.386-3.093-1.069-4.416l0.025 0.054c0.017-0.012 0.032-0.024 0.046-0.037l-0 0 1.416-1.416c0.98 1.662 1.558 3.662 1.558 5.797 0 0.004 0 0.008 0 0.013v-0.001zM22.835 12.281c0.753 1.265 1.199 2.79 1.199 4.418 0 4.827-3.913 8.741-8.741 8.741s-8.741-3.913-8.741-8.741c0-4.827 3.913-8.741 8.741-8.741 1.631 0 3.159 0.447 4.465 1.225l-0.040-0.022 0.461 2.041-0.442 0.442c-1.183-1.043-2.747-1.68-4.459-1.68-3.732 0-6.757 3.025-6.757 6.757s3.025 6.757 6.757 6.757c3.732 0 6.757-3.025 6.757-6.757 0-1.712-0.637-3.275-1.686-4.466l0.006 0.007 0.442-0.442zM17.172 16.709c0 0.002 0 0.005 0 0.007 0 1.043-0.845 1.888-1.888 1.888s-1.888-0.845-1.888-1.888c0-1.043 0.845-1.888 1.888-1.888 0.366 0 0.708 0.104 0.997 0.285l-0.008-0.005-1.292 1.292c-0.082 0.080-0.133 0.191-0.133 0.315 0 0.242 0.196 0.438 0.438 0.438 0.124 0 0.235-0.051 0.315-0.134l1.292-1.292c0.176 0.279 0.28 0.619 0.28 0.983v0zM16.903 14.478c-0.45-0.329-1.014-0.526-1.623-0.526-1.528 0-2.768 1.239-2.768 2.768s1.239 2.768 2.768 2.768c1.528 0 2.767-1.239 2.767-2.767 0-0.61-0.197-1.173-0.531-1.63l0.005 0.008 2.215-2.215c0.884 1.023 1.423 2.366 1.423 3.834 0 3.246-2.632 5.878-5.878 5.878s-5.878-2.632-5.878-5.878c0-3.246 2.632-5.878 5.878-5.878 1.47 0 2.813 0.539 3.844 1.431l-0.007-0.006zM25.114 9.884l-1.642 1.642-2.447-0.551-0.552-2.446 4.408-4.409 0.492 2.176c0.038 0.165 0.166 0.292 0.328 0.33l0.003 0.001 2.177 0.492z"></path>
</svg>
