<svg xmlns="http://www.w3.org/2000/svg" width="20" height="20" fill="#fff" viewBox="0 0 32 32"><path d="M31.5 17.193a.501.501 0 00-.329-.47L24 14.116V5.765h-.019a.495.495 0 00-.31-.604l-7.5-2.727a.488.488 0 00-.341 0l-7.5 2.727a.501.501 0 00-.316.361h-.013v8.594L.83 16.723a.501.501 0 00-.316.361H.501v8.864h.013a.5.5 0 00.317.579l7.5 2.727c.11.041.231.041.341 0l7.329-2.665 7.329 2.665c.11.041.231.041.341 0l7.5-2.727a.498.498 0 00.311-.336h.019v-8.998zM8 28.07l-6.5-2.363v-7.8L8 20.271zm.5-8.682l-6.037-2.195 5.998-2.181 6.037 2.196zm7 6.319L9 28.07v-7.799l6.5-2.364zm0-9.228L9 14.115V6.344l6.5 2.364zM9.963 5.631L16 3.436l6.037 2.195L16 7.826zM23 6.344v7.771l-6.5 2.364V8.708zm0 21.726l-6.5-2.363v-7.8l6.5 2.364zm.5-8.682l-5.998-2.181 6.038-2.196 5.997 2.181zm7 6.319L24 28.07v-7.799l6.5-2.364z"/></svg>