<svg xmlns="http://www.w3.org/2000/svg" width="32" height="32" fill="#fd642f"><path d="M27.952 4.241h-2.699V1.542C25.253.694 24.559 0 23.711 0H4.048C3.2 0 2.506.694 2.506 1.542v24.675c0 .848.694 1.542 1.542 1.542h2.699v2.699c0 .848.694 1.542 1.542 1.542h13.108c.848 0 2.048-.476 2.665-1.057l4.308-4.055c.618-.581 1.123-1.751 1.123-2.599l.001-18.506c0-.848-.694-1.542-1.542-1.542zM6.747 5.783v20.819H4.048a.39.39 0 01-.385-.386V1.541a.39.39 0 01.385-.385h19.663c.209 0 .386.177.386.385V4.24H8.289c-.849 0-1.542.694-1.542 1.542zm20.83 20.263l-4.308 4.055a2.06 2.06 0 01-.33.242v-3.547c0-.265.107-.503.283-.68a.962.962 0 01.681-.283h3.857c-.06.081-.121.156-.183.215zm.76-1.757c0 .114-.021.247-.052.386h-4.381a2.124 2.124 0 00-2.12 2.12v4.002c-.138.028-.27.047-.386.047H8.29a.391.391 0 01-.386-.386V5.783a.39.39 0 01.386-.386h19.663c.209 0 .386.177.386.386l-.001 18.506z"/><path d="M23.711 9.638H12.53a.578.578 0 100 1.156h11.181a.578.578 0 000-1.156zm0 7.711H12.53a.578.578 0 100 1.156h11.181a.578.578 0 000-1.156zm-5.012 3.856H12.53a.578.578 0 100 1.156h6.169a.578.578 0 000-1.156zm5.012-7.711H12.53a.578.578 0 100 1.156h11.181a.578.578 0 000-1.156z"/></svg>