<svg xmlns="http://www.w3.org/2000/svg" width="20" height="20" fill="#fff" viewBox="0 0 32 32"><path d="M31.063 15.063h-1.157a13.833 13.833 0 00-3.291-8.095l.753-.733a.938.938 0 00-1.308-1.344l-.753.733a13.791 13.791 0 00-8.368-3.53V.937a.938.938 0 00-1.876 0v1.157a13.789 13.789 0 00-8.368 3.53l-.753-.733a.938.938 0 00-1.308 1.344l.753.733a13.836 13.836 0 00-3.291 8.095H.939a.938.938 0 000 1.876h1.157a13.833 13.833 0 003.284 8.086l-.532.518a.938.938 0 001.308 1.344l.531-.517a13.786 13.786 0 008.377 3.538v1.157a.937.937 0 101.876-.001v-1.157a13.79 13.79 0 008.377-3.538l.531.517a.938.938 0 001.308-1.344l-.532-.518a13.84 13.84 0 003.284-8.086h1.157a.938.938 0 000-1.876zm-3.037 0h-3.145c-.191-1.613-.865-3.196-1.931-4.529l2.317-2.256a11.975 11.975 0 012.759 6.784zm-12.026 8c-1.805 0-3.625-.805-4.994-2.21C9.692 19.504 8.938 17.735 8.938 16c0-3.692 3.329-7.063 7.063-7.063 3.741 0 7.063 3.377 7.063 7.063 0 3.692-3.329 7.063-7.063 7.063zm7.959-16.128L21.64 9.192c-1.369-1.15-3.015-1.875-4.703-2.074V3.973a11.932 11.932 0 017.022 2.962zm-8.896-2.962v3.145c-1.688.198-3.335.924-4.703 2.074L8.041 6.935a11.932 11.932 0 017.022-2.962zM6.732 8.278l2.317 2.256c-1.065 1.333-1.74 2.916-1.931 4.529H3.973a11.972 11.972 0 012.759-6.784zm-2.758 8.66h3.145c.195 1.648.888 3.221 1.923 4.519l-2.317 2.256a11.976 11.976 0 01-2.751-6.775zm4.058 8.119L10.35 22.8c1.37 1.155 3.02 1.883 4.713 2.082v3.145a11.93 11.93 0 01-7.031-2.97zm8.906 2.97v-3.145c1.692-.199 3.342-.927 4.712-2.082l2.318 2.257a11.928 11.928 0 01-7.031 2.97zm8.337-4.315l-2.317-2.256c1.061-1.331 1.733-2.91 1.923-4.519h3.145a11.979 11.979 0 01-2.751 6.775z"/><path d="M16 12.563c-1.895 0-3.438 1.542-3.438 3.438s1.542 3.438 3.438 3.438 3.438-1.542 3.438-3.438-1.542-3.438-3.438-3.438zm0 5c-.862 0-1.563-.701-1.563-1.563s.701-1.563 1.563-1.563 1.563.701 1.563 1.563-.701 1.563-1.563 1.563z"/></svg>