<svg xmlns="http://www.w3.org/2000/svg" width="226" height="26" fill="#fff" viewBox="0 0 32 32"><path d="M16.465.196a.667.667 0 00-.943-.001l-.001.001-12 12a.668.668 0 00.942.943L15.326 2.276v29.057a.667.667 0 001.334 0V2.276l10.861 10.861a.667.667 0 10.959-.927l-.016-.016L16.465.195z"/><path d="M27.992 13.333a.668.668 0 01-.472-.195L15.992 1.609 4.464 13.138a.668.668 0 01-.943-.942l12-12c.26-.26.682-.26.943 0l12 12a.667.667 0 01-.473 1.137z"/><path d="M15.992 32a.667.667 0 01-.667-.667V.666a.667.667 0 011.334 0v30.667a.667.667 0 01-.667.667z"/></svg>