<svg version="1.1" xmlns="http://www.w3.org/2000/svg" viewBox="0 0 32 32" width="34" height="34" fill="#fbc566" id="internet"><path d="M29.041 6.764l-.003-.031c-.04-.057-.089-.106-.13-.162a16.29 16.29 0 00-2.307-2.533c-.07-.062-.135-.126-.205-.186a16.08 16.08 0 00-3.034-2.049c-.043-.023-.089-.042-.134-.065-.484-.246-.98-.467-1.486-.662-.114-.041-.218-.08-.327-.114-.45-.162-.908-.304-1.372-.426a10.896 10.896 0 00-.414-.106 16.002 16.002 0 00-1.382-.254c-.142-.021-.281-.048-.424-.065a15.064 15.064 0 00-3.626 0c-.143.017-.282.045-.424.065a15.3 15.3 0 00-1.382.254c-.139.032-.277.07-.414.106-.467.122-.924.264-1.372.426-.114.039-.218.078-.327.114-.506.195-1.002.416-1.486.662-.045.023-.09.042-.134.065a15.98 15.98 0 00-3.044 2.049c-.07.061-.135.125-.205.186a14.544 14.544 0 00-1.358 1.358c-.335.376-.651.767-.949 1.175-.041.056-.09.105-.13.162l-.014.031a15.901 15.901 0 000 18.472.173.173 0 00.014.031c.04.057.089.106.13.162a15.765 15.765 0 001.226 1.48c.345.368.705.719 1.081 1.053.07.062.135.126.205.186a16.08 16.08 0 003.034 2.049c.043.023.089.042.134.065.484.246.98.467 1.486.662.114.041.218.08.327.114.45.162.908.304 1.372.426.137.037.274.074.414.106.457.106.915.188 1.382.254.142.021.281.048.424.065 1.204.146 2.422.146 3.626 0 .143-.017.282-.045.424-.065.468-.066.929-.148 1.382-.254.139-.032.277-.07.414-.106.468-.122.925-.264 1.372-.426.114-.039.218-.078.327-.114a15.894 15.894 0 001.486-.662c.045-.023.09-.042.134-.065a16.034 16.034 0 003.034-2.049c.07-.061.135-.125.205-.186a14.544 14.544 0 001.358-1.358c.335-.377.651-.768.949-1.175.041-.056.09-.105.13-.162l.014-.031a15.9 15.9 0 000-18.471zm-1.304 2.163a13.62 13.62 0 011.929 5.93h-6.848a21.336 21.336 0 00-.64-4.034 20.554 20.554 0 005.559-1.895zm-8.823-6.33c.064.015.126.035.19.05.409.096.815.206 1.212.343.061.021.12.045.18.066.393.137.781.289 1.16.457.066.031.131.065.198.096.364.173.719.36 1.065.561l.229.138c.329.201.649.417.96.646.08.058.16.114.239.178.305.229.597.474.876.735.073.066.149.131.221.2.293.278.572.572.841.876.034.04.071.077.105.114a19.178 19.178 0 01-4.876 1.566 29.098 29.098 0 00-3.077-6.107c.159.029.321.045.478.079zm-7.44 12.26a19.06 19.06 0 01.629-3.658 32.89 32.89 0 007.809-.005c.327 1.198.537 2.425.625 3.664h-9.063zm9.063 2.286a19.06 19.06 0 01-.629 3.658 32.847 32.847 0 00-3.903-.229 32.885 32.885 0 00-3.906.229 19.053 19.053 0 01-.625-3.658h9.063zM16.006 3.027a27.593 27.593 0 013.186 5.945 30.273 30.273 0 01-3.186.169 30.503 30.503 0 01-3.183-.17 27.79 27.79 0 013.183-5.943zM5.729 6.944c.269-.304.549-.598.841-.876.072-.069.147-.134.221-.2.282-.257.574-.502.876-.735.079-.061.159-.114.239-.178.311-.229.631-.444.96-.646l.229-.138c.347-.203.702-.39 1.065-.561l.198-.096c.38-.171.767-.324 1.16-.457.059-.022.114-.046.179-.066.397-.133.8-.242 1.212-.343.064-.015.126-.035.191-.049.157-.034.319-.05.478-.079a29.114 29.114 0 00-3.079 6.108 19.178 19.178 0 01-4.876-1.566c.034-.04.071-.077.105-.116zM4.274 8.927a20.514 20.514 0 005.558 1.895 21.254 21.254 0 00-.639 4.034H2.345a13.598 13.598 0 011.929-5.93zm0 14.146a13.62 13.62 0 01-1.929-5.93h6.848c.084 1.362.298 2.713.64 4.034a20.554 20.554 0 00-5.559 1.895zm8.823 6.33c-.064-.015-.126-.035-.19-.05a12.388 12.388 0 01-1.212-.343c-.061-.021-.12-.045-.18-.066a15.258 15.258 0 01-1.16-.457l-.198-.096a14.57 14.57 0 01-1.065-.561l-.229-.138a13.091 13.091 0 01-.96-.646c-.08-.058-.16-.114-.239-.178a10.58 10.58 0 01-.876-.735c-.073-.066-.149-.131-.221-.2a13.924 13.924 0 01-.841-.876c-.034-.04-.071-.077-.105-.114a19.178 19.178 0 014.876-1.566 29.098 29.098 0 003.077 6.107c-.159-.028-.321-.044-.478-.079zm2.909-.43a27.593 27.593 0 01-3.186-5.945 29.747 29.747 0 016.37 0l-.001.001a27.79 27.79 0 01-3.183 5.943zm10.277-3.917c-.269.304-.549.598-.841.876-.072.069-.148.134-.221.2a13.306 13.306 0 01-2.075 1.559l-.229.138c-.346.202-.701.389-1.065.561-.066.031-.131.065-.198.096-.38.171-.767.324-1.16.457-.059.022-.114.046-.179.066-.397.133-.8.242-1.212.343-.064.015-.126.035-.191.049-.157.034-.319.05-.478.079a29.026 29.026 0 003.077-6.107c1.688.302 3.328.828 4.876 1.566-.033.039-.07.075-.104.115zm1.454-1.983a20.514 20.514 0 00-5.558-1.895c.342-1.321.556-2.672.639-4.034h6.848a13.598 13.598 0 01-1.929 5.93z"/></svg>