<svg xmlns="http://www.w3.org/2000/svg" width="32" height="32" fill="#0baea3"><path d="M22.305 7.783a8.878 8.878 0 00-6.297-2.596h-.065A8.945 8.945 0 009.238 8.3a.625.625 0 00.947.816 7.699 7.699 0 015.767-2.68h.056c2.044 0 3.966.792 5.417 2.233a7.634 7.634 0 012.271 5.456 7.656 7.656 0 01-2.098 5.278c-1.421 1.504-2.254 3.407-2.379 5.408H18v-6.625h.396c.908 0 1.646-.738 1.646-1.646v-.083c0-.908-.738-1.646-1.646-1.646s-1.646.738-1.646 1.646v.479h-1.5v-.479c0-.908-.738-1.646-1.646-1.646h-.106c-.908 0-1.646.738-1.646 1.646v.083c0 .908.738 1.646 1.646 1.646H14v6.625h-1.204a8.409 8.409 0 00-2.332-5.357A7.64 7.64 0 018.32 13.91a.626.626 0 00-1.25-.034 8.877 8.877 0 002.492 6.444c1.289 1.34 1.998 3.122 1.998 5.019v1.809a2.605 2.605 0 002.313 2.585v.141c0 1.172.953 2.125 2.125 2.125s2.125-.953 2.125-2.125v-.14a2.604 2.604 0 002.327-2.587v-1.808c0-1.872.73-3.675 2.055-5.078a8.902 8.902 0 002.439-6.136c0-2.4-.938-4.652-2.641-6.343zM18 16.459a.397.397 0 01.792 0v.083a.397.397 0 01-.396.396H18v-.479zm-2.75 1.729h1.5v6.625h-1.5v-6.625zm-1.752-1.25a.397.397 0 01-.396-.396v-.083c0-.218.178-.396.396-.396h.106c.218 0 .396.178.396.396v.479h-.502zm3.377 12.937a.875.875 0 01-1.75 0v-.125h1.75v.125zm2.327-2.726c0 .745-.606 1.351-1.351 1.351h-3.688a1.352 1.352 0 01-1.351-1.351v-1.086h6.39v1.086zM16 0a.625.625 0 00-.625.625v2.334a.625.625 0 001.25 0V.625A.625.625 0 0016 0zm13.501 13.501h-2.334a.625.625 0 000 1.25h2.334a.625.625 0 000-1.25zm-24.668 0H2.499a.625.625 0 000 1.25h2.334a.625.625 0 000-1.25zm3.712-7.713l-1.65-1.65a.625.625 0 00-.884.884l1.65 1.65a.623.623 0 00.884 0 .625.625 0 000-.884zm17.444-1.651a.625.625 0 00-.884 0l-1.65 1.65a.625.625 0 00.884.884l1.65-1.65a.625.625 0 000-.884z"/><path d="M21.851 11.766a6.312 6.312 0 00-5.862-3.958h-.046a.625.625 0 00.004 1.25h.041a5.043 5.043 0 014.703 3.175.624.624 0 101.159-.467zm.273 1.918a.63.63 0 00-.884 0 .63.63 0 000 .884.63.63 0 00.884 0 .63.63 0 000-.884zm-13.338-3.22a.628.628 0 00-.884 0 .63.63 0 000 .885.63.63 0 00.884 0c.116-.117.183-.277.183-.442s-.067-.326-.183-.443z"/></svg>