<svg xmlns="http://www.w3.org/2000/svg" width="32" height="32" fill="#0baea3"><path d="M13.094 28.032a.501.501 0 010-1h5.813a.5.5 0 010 1h-5.813zm.646 1.985a.5.5 0 010-1h4.521a.5.5 0 010 1H13.74zm1.79-6.913a.498.498 0 01-.996 0c-.002-2.105-.063-3.678-.353-5.134-.287-1.44-.802-2.774-1.716-4.42a.498.498 0 01.871-.484c.97 1.748 1.519 3.171 1.825 4.709.303 1.519.367 3.15.369 5.329zm1.937 0a.498.498 0 01-.996 0c.002-2.179.066-3.809.369-5.329.306-1.539.855-2.961 1.825-4.709a.497.497 0 11.87.484c-.914 1.646-1.428 2.981-1.716 4.42-.29 1.456-.351 3.029-.352 5.134z"/><path d="M12.748 13.782a.5.5 0 01.304-.95c.348.113.649.264.927.403l.027.015c.434.219.796.39 1.065.171l.615-.501a.498.498 0 01.628.774l-.615.501c-.766.623-1.392.32-2.146-.058l-.023-.01a5.639 5.639 0 00-.782-.344zm3.753-11.344a.5.5 0 01-1 0V.5a.5.5 0 011 0v1.938z"/><path d="M18.948 12.832a.498.498 0 11.304.95c-.274.089-.538.222-.783.345l-.023.01c-.753.378-1.38.682-2.146.058l-.615-.501a.499.499 0 01.628-.774l.615.501c.269.219.629.047 1.065-.171l.027-.015c.279-.141.58-.292.928-.404z"/><path d="M22.291 7.772a8.871 8.871 0 012.606 6.291 8.873 8.873 0 01-1.712 5.243 31.48 31.48 0 01-2.241 2.72c-1.041 1.151-1.497 1.655-1.497 3.339a.5.5 0 01-.5.5h-5.853a.501.501 0 01-.501-.5c0-1.667-.466-2.176-1.499-3.308l-.001-.001-.001.001c-.584-.64-1.336-1.464-2.277-2.75a8.875 8.875 0 01-1.712-5.243c0-1.202.241-2.352.676-3.402l.009-.02a8.908 8.908 0 014.811-4.798v-.001a8.873 8.873 0 013.402-.676c1.2 0 2.349.241 3.4.676a8.941 8.941 0 012.889 1.93zm1.605 6.291c0-2.18-.884-4.154-2.313-5.583a7.896 7.896 0 00-2.563-1.716 7.878 7.878 0 00-3.021-.597 7.868 7.868 0 00-3.019.597v-.001l-.002.001a7.872 7.872 0 00-2.561 1.716 7.93 7.93 0 00-1.706 2.537l-.01.027a7.887 7.887 0 00-.597 3.019c0 .856.136 1.681.386 2.449a7.915 7.915 0 001.129 2.205c.903 1.235 1.639 2.041 2.21 2.668l-.001.001c1.113 1.216 1.666 1.824 1.752 3.48h4.877c.085-1.668.628-2.27 1.746-3.505.558-.618 1.276-1.413 2.175-2.642a7.866 7.866 0 001.517-4.656zM14.386 32a.5.5 0 010-1h3.229a.5.5 0 010 1h-3.229zm7.749-27.786a.498.498 0 01-.863-.497l.969-1.678a.498.498 0 01.863.497l-.969 1.678zm-11.406-.496a.498.498 0 01-.862.496l-.969-1.678c-.136-.237-.054-.543.183-.679s.544-.054.68.183l.968 1.678zm-4.358 3.99a.497.497 0 11-.496.863l-1.678-.969a.497.497 0 11.496-.862l1.678.968zm19.754.864c-.239.136-.544.054-.68-.183s-.054-.544.183-.68l1.678-.969c.238-.136.544-.054.68.183s.054.544-.183.68l-1.678.969z"/><path d="M10.806 16.039a.498.498 0 01-.918.386 6.584 6.584 0 01-.39-1.263 6.757 6.757 0 01-.133-1.318.5.5 0 011 0 5.552 5.552 0 00.44 2.195zm0-4.391a.499.499 0 01-.918-.386 6.72 6.72 0 01.607-1.122l.001-.001-.001-.001a6.683 6.683 0 011.8-1.797V8.34a6.58 6.58 0 011.124-.607A6.624 6.624 0 0116 7.21a.5.5 0 010 1 5.571 5.571 0 00-3.147.958h-.001a5.554 5.554 0 00-.836.692c-.257.257-.491.54-.692.839l-.001-.001c-.203.301-.377.62-.518.952z"/></svg>