<svg xmlns="http://www.w3.org/2000/svg" width="32" height="32" fill="#8350e3"><path d="M24.196 8.727l-1.562 3.05 1.849-9.204A2.128 2.128 0 0022.743.02a2.197 2.197 0 00-2.449 1.736l-.983 4.321-1.041 4.824-.123-8.279a2.133 2.133 0 10-4.267.063v9.336l-.8-1.684a2.128 2.128 0 00-2.532-1.139l-2.87.844a1.62 1.62 0 00-.849.618l-1.396 1.987a2.013 2.013 0 00-.295 1.747l.01.023a1.595 1.595 0 00-1.403 1.579v4.132c0 .43.173.842.48 1.142l5.186 4.9c.171.168.303.371.387.595.094.231.21.453.348.661v2.973a1.6 1.6 0 001.601 1.6h8.535a1.6 1.6 0 001.601-1.6v-2.921a5.842 5.842 0 001-2.085c.303-1.215.513-2.452.63-3.699.072-.605.146-1.219.241-1.839a9.983 9.983 0 011.018-3.041l3.299-6.299a2.133 2.133 0 00-1.089-2.897 2.184 2.184 0 00-2.784 1.108zm-13.124 8.95l-1.13 1.68a1.772 1.772 0 01-.427-.228l-.759-.572a.535.535 0 01-.213-.427v-.533a3.172 3.172 0 00-.655-1.936c.23-.101.439-.243.618-.419l1.232-1.275a.362.362 0 01.587.164l.796 3.172a.5.5 0 01-.047.375zm15.491-9.075a1.065 1.065 0 01.554 1.433l-3.293 6.286a11.04 11.04 0 00-1.126 3.371 54.951 54.951 0 00-.246 1.876 24.032 24.032 0 01-.6 3.543c-.329 1.196-1.054 2.622-2.639 2.622a.534.534 0 000 1.067 3.283 3.283 0 001.601-.41v2.011a.534.534 0 01-.534.533h-8.535a.534.534 0 01-.534-.533v-1.978a3.351 3.351 0 001.601.378.533.533 0 000-1.067 1.991 1.991 0 01-2.027-1.362 2.702 2.702 0 00-.645-.976l-5.175-4.89a.529.529 0 01-.155-.377v-4.132a.53.53 0 01.518-.533 2.134 2.134 0 012.149 2.134v.533c.001.504.238.977.64 1.28l.761.571c.347.253.747.425 1.169.504l.045.009a2.997 2.997 0 001.891-.286.531.531 0 00.056-.922.535.535 0 00-.533-.032 2.094 2.094 0 01-.284.112l.747-1.108c.225-.363.292-.802.187-1.217l-.794-3.166a1.409 1.409 0 00-1.372-1.079 1.39 1.39 0 00-1.024.435l-1.222 1.263a.95.95 0 01-1.441-1.231l1.398-1.99c.07-.098.17-.17.285-.206l2.862-.842a1.066 1.066 0 011.27.569l1.611 3.401a.64.64 0 001.216-.274V2.678a1.068 1.068 0 012.134-.036l.176 11.79a.665.665 0 001.316.134l1.781-8.252.983-4.321a1.12 1.12 0 011.233-.913 1.063 1.063 0 01.87 1.283L20.98 14.595a.64.64 0 001.194.426l2.976-5.815a1.134 1.134 0 011.412-.602z"/><path d="M15.021 17.602a.534.534 0 10-.151 1.056c.96.138 3.627.832 4.399 2.378a.533.533 0 10.955-.477c-1.179-2.357-5.04-2.934-5.203-2.957zm-.411 2.166a.532.532 0 10-.398.99c.023.01 2.332.972 2.332 4.306a.534.534 0 101.067 0c0-4.048-2.881-5.247-3.002-5.296z"/></svg>