<svg version="1.1" xmlns="http://www.w3.org/2000/svg" viewBox="0 0 32 32" fill="#fff" id="scrolldown"><path d="M30.803 14.121L15.992 28.934 1.181 14.121a.696.696 0 00-.984.983l15.304 15.304a.695.695 0 00.984 0l15.304-15.304a.696.696 0 00-.984-.984h-.001z"/><path d="M30.803 1.6L15.992 16.413 1.181 1.6a.696.696 0 00-.984.984l15.304 15.304a.695.695 0 00.984 0L31.789 2.584a.696.696 0 00-.967-1.001l-.017.017h-.001z"/><path d="M15.991 30.613a.695.695 0 01-.492-.203L.195 15.106a.696.696 0 01.983-.984l14.813 14.811L30.802 14.12a.696.696 0 01.984.984L16.482 30.408a.692.692 0 01-.491.204z"/><path d="M15.991 18.091a.695.695 0 01-.492-.203L.195 2.584a.696.696 0 01.984-.984l14.813 14.811L30.803 1.598a.696.696 0 011.001.967l-.017.017-15.304 15.304a.692.692 0 01-.491.204z"/></svg>