<svg xmlns="http://www.w3.org/2000/svg" width="20" height="20" fill="#fff" viewBox="0 0 32 32"><path d="M22.594 31.063a.938.938 0 001.876 0c0-6.559-2.722-10.408-5.838-13.717l-.642.644-.683.684c.313.334.62.671.919 1.014h-4.449c.905-1.042 1.889-2.026 2.888-3.025 3.838-3.838 7.806-7.806 7.806-15.725a.938.938 0 00-1.876 0c0 .322-.007.637-.021.945H9.429a20.816 20.816 0 01-.021-.945.938.938 0 00-1.876 0c0 6.559 2.722 10.408 5.838 13.717l.642-.644.683-.684a34.264 34.264 0 01-.89-.982h4.392c-.898 1.03-1.871 2.004-2.859 2.992-3.838 3.838-7.806 7.806-7.806 15.725a.938.938 0 001.876 0c0-.311.007-.615.02-.913h13.147c.013.298.02.601.02.913zm-2.894-9.5a16.344 16.344 0 011.43 2.456H10.869c.411-.879.894-1.691 1.43-2.456zm2.692-17.805a15.717 15.717 0 01-.545 2.382H10.153a15.69 15.69 0 01-.545-2.382zM12.323 10.47a16.381 16.381 0 01-1.438-2.456h10.23c-.414.879-.9 1.691-1.438 2.456zm-2.72 17.805c.126-.848.309-1.639.54-2.382h11.714c.231.743.414 1.533.54 2.382z"/></svg>