<svg xmlns="http://www.w3.org/2000/svg" width="32" height="32" fill="#fd642f"><path d="M31.87 13.647l-5.356-6.958a.627.627 0 00-.834-.146l-3.458 2.199h-4.51a.609.609 0 00-.173.029l-3.497 1.007-3.628-.992-3.526-2.242a.628.628 0 00-.825.135L.139 14.017a.627.627 0 00.079.87l3.105 2.672 2.786 3.754a2.22 2.22 0 00.049 3.085 2.21 2.21 0 001.345.637 2.207 2.207 0 00.623 1.907c.418.419.976.65 1.568.65l.024-.001-.001.045c0 .592.231 1.149.649 1.568a2.2 2.2 0 001.914.622 2.21 2.21 0 002.206 1.998 2.21 2.21 0 001.568-.648l.339-.339.142.115c.429.415.985.623 1.542.623a2.21 2.21 0 002.216-2.251 2.212 2.212 0 002.251-2.25 2.204 2.204 0 001.603-.649 2.21 2.21 0 00.648-1.603 2.21 2.21 0 001.603-.648 2.22 2.22 0 00.291-2.776l2.034-4.26 3.058-2.631a.627.627 0 00.088-.858zM6.688 7.903l2.535 1.612-5.515 6.719-2.21-1.902zm.357 14.245l.765-.765a.96.96 0 01.595-.278l.016-.001a.96.96 0 01.769.299c.354.375.335.987-.042 1.365l-.742.742c-.375.375-.986.375-1.361 0s-.375-.986 0-1.361zm1.969 3.905c-.182-.182-.282-.423-.282-.68s.1-.499.282-.681l1.484-1.484a.973.973 0 011.094-.189.96.96 0 01.53.994 1.014 1.014 0 01-.287.58l-1.46 1.46c-.182.182-.424.282-.681.282s-.499-.1-.681-.282zm2.24 2.262c-.182-.182-.282-.423-.282-.68s.1-.499.282-.681l1.483-1.484a.974.974 0 011.164-.153c.34.198.518.586.459.973a1.017 1.017 0 01-.285.565l-1.46 1.46c-.182.182-.424.282-.681.282s-.499-.1-.681-.282zm2.552 1.973a.964.964 0 010-1.361l.765-.765a.88.88 0 01.072-.065l.002-.001a.952.952 0 01.427-.198l.011-.001a.735.735 0 01.082-.011l.033-.002c.022-.001.045-.003.067-.002a.96.96 0 01.749.375c.289.377.25.938-.108 1.296l-.738.738a.964.964 0 01-1.361 0zm11.705-7.003a.964.964 0 01-1.361 0 .508.508 0 00-.043-.038l-4.035-4.077a.627.627 0 00-.892.883l4.078 4.121.001.001a.964.964 0 01-1.362 1.361l-2.728-2.757a.628.628 0 00-.892.882l2.687 2.714a.67.67 0 00.044.049.964.964 0 01-1.362 1.361l-1.489-1.505a.627.627 0 10-.892.882l1.448 1.462c.014.017.028.034.044.049.375.375.375.986 0 1.361s-.986.375-1.361 0c-.043-.043-.094-.076-.142-.114-.041-.031-.052-.053-.031-.103s.052-.096.073-.147c.023-.057.041-.115.06-.174.096-.31.125-.644.081-.965a2.21 2.21 0 00-.937-1.527c-.278-.19-.6-.315-.933-.362a2.235 2.235 0 00-.537-2.019 2.205 2.205 0 00-1.581-.694h-.066a2.216 2.216 0 00-.593-1.568 2.205 2.205 0 00-1.581-.694 2.29 2.29 0 00-.535.057 2.198 2.198 0 00-2.151-1.883 2.222 2.222 0 00-1.515.57l-2.426-3.268 5.803-7.069 1.849.506-2.415 4.262a2.202 2.202 0 00-.208 1.684 2.207 2.207 0 001.142 1.39l.008.004a2.201 2.201 0 001.579.153 2.204 2.204 0 001.338-1.044l1.57-2.77 2.803.199 7.463 7.462a.964.964 0 010 1.361zm.26-2.876l-7.001-7a.627.627 0 00-.399-.182l-3.431-.243a.638.638 0 00-.59.317l-1.765 3.114a.962.962 0 11-1.675-.949l2.356-4.157.955-.275a.439.439 0 01.019-.006l3.563-1.029h4.305l5.374 6.832zm2.531-4.565l-4.97-6.321 2.536-1.613 4.644 6.032z"/><path d="M19.386 7.564a.625.625 0 00.444-.184l4.286-4.286a.627.627 0 10-.887-.887l-4.286 4.286a.627.627 0 00.444 1.071zm-7.216-.183a.625.625 0 00.888 0 .627.627 0 000-.887L8.772 2.208a.627.627 0 10-.887.887zm3.83.183a.627.627 0 00.627-.627V3.39a.627.627 0 00-1.254 0v3.547c0 .346.281.627.627.627zm-.579-6.448c.1.241.348.4.61.386a.632.632 0 00.566-.435.632.632 0 00-.215-.689.633.633 0 00-.73-.024.631.631 0 00-.231.762z"/></svg>