<svg xmlns="http://www.w3.org/2000/svg" width="36" height="36" fill="#fbc566" viewBox="0 0 32 32"><path d="M29.17 6.745a.437.437 0 00-.322-.304l-.003-.001-2.681-.606-.606-2.681a.437.437 0 00-.736-.213l-3.084 3.084a12.343 12.343 0 00-6.446-1.794c-6.891 0-12.477 5.586-12.477 12.477s5.586 12.477 12.477 12.477 12.477-5.586 12.477-12.477c0-2.382-.667-4.608-1.825-6.501l.031.055 3.085-3.085a.435.435 0 00.11-.434l.001.003zm-2.276 9.964c-.001 6.407-5.195 11.6-11.601 11.6S3.692 23.115 3.692 16.707 8.886 5.106 15.293 5.106c2.139 0 4.142.579 5.862 1.588l-.055-.03-1.416 1.416a.34.34 0 00-.033.042l-.001.002a9.517 9.517 0 00-4.374-1.049c-5.325 0-9.641 4.316-9.641 9.641s4.316 9.641 9.641 9.641a9.64 9.64 0 009.641-9.641 9.598 9.598 0 00-1.069-4.416l.025.054a.437.437 0 00.046-.037l1.416-1.416a11.427 11.427 0 011.558 5.797v.013-.001zm-4.059-4.428a8.65 8.65 0 011.199 4.418 8.741 8.741 0 11-4.276-7.516l-.04-.022.461 2.041-.442.442a6.757 6.757 0 10.612.611l.006.007.442-.442zm-5.663 4.428v.007a1.888 1.888 0 11-.891-1.603l-.008-.005-1.292 1.292a.438.438 0 10.62.619l1.292-1.292c.176.279.28.619.28.983zm-.269-2.231a2.768 2.768 0 10.613.613l.005.008 2.215-2.215a5.878 5.878 0 11-.611-.613l-.007-.006zm8.211-4.594l-1.642 1.642-2.447-.551-.552-2.446 4.408-4.409.492 2.176a.44.44 0 00.328.33l.003.001 2.177.492z"/></svg>